0
SECTION
2
HEADER
9
$INSUNITS
70
4
9
$ACADVER
1
AC1014
9
$HANDSEED
5
FFFF
0
ENDSEC
0
SECTION
2
TABLES
0
TABLE
2
VPORT
5
8
100
AcDbSymbolTable
0
ENDTAB
0
TABLE
2
LTYPE
5
5
100
AcDbSymbolTable
0
LTYPE
5
14
100
AcDbSymbolTableRecord
100
AcDbLinetypeTableRecord
2
BYBLOCK
70
0
0
LTYPE
5
15
100
AcDbSymbolTableRecord
100
AcDbLinetypeTableRecord
2
BYLAYER
70
0
0
ENDTAB
0
TABLE
2
LAYER
5
2
100
AcDbSymbolTable
70
2
0
LAYER
5
50
100
AcDbSymbolTableRecord
100
AcDbLayerTableRecord
2
0
70
0
6
CONTINUOUS
0
ENDTAB
0
TABLE
2
STYLE
5
3
100
AcDbSymbolTable
70
1
0
STYLE
5
11
100
AcDbSymbolTableRecord
100
AcDbTextStyleTableRecord
2
STANDARD
70
0
0
ENDTAB
0
TABLE
2
VIEW
5
6
100
AcDbSymbolTable
70
0
0
ENDTAB
0
TABLE
2
UCS
5
7
100
AcDbSymbolTable
70
0
0
ENDTAB
0
TABLE
2
APPID
5
9
100
AcDbSymbolTable
70
2
0
APPID
5
12
100
AcDbSymbolTableRecord
100
AcDbRegAppTableRecord
2
ACAD
70
0
0
ENDTAB
0
TABLE
2
DIMSTYLE
5
A
100
AcDbSymbolTable
70
1
0
ENDTAB
0
TABLE
2
BLOCK_RECORD
5
1
100
AcDbSymbolTable
70
1
0
BLOCK_RECORD
5
1F
100
AcDbSymbolTableRecord
100
AcDbBlockTableRecord
2
*MODEL_SPACE
0
BLOCK_RECORD
5
1B
100
AcDbSymbolTableRecord
100
AcDbBlockTableRecord
2
*PAPER_SPACE
0
ENDTAB
0
ENDSEC
0
SECTION
2
BLOCKS
0
BLOCK
5
20
100
AcDbEntity
100
AcDbBlockBegin
2
*MODEL_SPACE
0
ENDBLK
5
21
100
AcDbEntity
100
AcDbBlockEnd
0
BLOCK
5
1C
100
AcDbEntity
100
AcDbBlockBegin
2
*PAPER_SPACE
0
ENDBLK
5
1D
100
AcDbEntity
100
AcDbBlockEnd
0
ENDSEC
0
SECTION
2
ENTITIES
0
LWPOLYLINE
5
100
100
AcDbEntity
8
0
100
AcDbPolyline
90
22
70
1
43
0.0
10
3.5000000000000009
20
-15.500000000000005
42
-0.41421356237309509
10
5.5
20
-13.500000000000005
10
18.057777904776419
20
-13.500000000000005
42
0.43695018796594337
10
23.042963057397849
20
-8.1153846153846061
42
-2.5520835941226179
10
37.499999999999993
20
-21.499999999999993
10
28.500000000000007
20
-21.499999999999993
42
0.41421356237309509
10
18.500000000000007
20
-31.499999999999993
10
18.500000000000007
20
-48.999999999999986
10
16.877853859842858
20
-93.609018854321405
42
-0.40360722014383787
10
13.879835366003569
20
-96.499999999999986
10
-13.879835366003569
20
-96.499999999999986
42
-0.40360722014383299
10
-16.877853859842865
20
-93.60901885432142
10
-18.500000000000007
20
-48.999999999999986
10
-18.500000000000011
20
-31.499999999999993
42
0.41421356237309553
10
-28.500000000000014
20
-21.499999999999993
10
-37.5
20
-21.500000000000004
42
-2.5520835941226179
10
-23.042963057397845
20
-8.1153846153846203
42
0.43695018796594171
10
-18.057777904776419
20
-13.500000000000004
10
-5.5000000000000027
20
-13.499999999999998
42
-0.41421356237309509
10
-3.5000000000000009
20
-15.5
42
0.41421356237309548
10
-2.5000000000000009
20
-16.500000000000004
10
2.5000000000000009
20
-16.500000000000004
42
0.41421356237309437
0
CIRCLE
5
101
100
AcDbEntity
8
0
100
AcDbCircle
10
14.900000000000004
20
-45.999999999999979
30
0
40
1.7500000000000004
210
0
220
0
230
1
0
CIRCLE
5
102
100
AcDbEntity
8
0
100
AcDbCircle
10
12.875138050654058
20
-93.611000360482137
30
0
40
1.7500000000000004
210
0
220
0
230
1
0
CIRCLE
5
103
100
AcDbEntity
8
0
100
AcDbCircle
10
-14.900000000000009
20
-45.999999999999979
30
0
40
1.7500000000000004
210
0
220
0
230
1
0
CIRCLE
5
104
100
AcDbEntity
8
0
100
AcDbCircle
10
-12.875138050654058
20
-93.611000360482137
30
0
40
1.7500000000000004
210
0
220
0
230
1
0
CIRCLE
5
105
100
AcDbEntity
8
0
100
AcDbCircle
10
-22.5
20
-16.5
30
0
40
1.749999999999998
210
0
220
0
230
1
0
CIRCLE
5
106
100
AcDbEntity
8
0
100
AcDbCircle
10
37.5
20
-6.9999999999999929
30
0
40
9.0000000000000036
210
0
220
0
230
1
0
CIRCLE
5
107
100
AcDbEntity
8
0
100
AcDbCircle
10
22.5
20
-16.500000000000036
30
0
40
1.749999999999998
210
0
220
0
230
1
0
CIRCLE
5
108
100
AcDbEntity
8
0
100
AcDbCircle
10
-37.5
20
-7.0000000000000009
30
0
40
9.0000000000000036
210
0
220
0
230
1
0
ENDSEC
0
SECTION
2
OBJECTS
0
DICTIONARY
5
C
100
AcDbDictionary
3
ACAD_GROUP
350
D
3
ACAD_MLINESTYLE
350
17
0
DICTIONARY
5
D
100
AcDbDictionary
0
DICTIONARY
5
1A
330
C
100
AcDbDictionary
0
DICTIONARY
5
17
100
AcDbDictionary
0
ENDSEC
0
EOF
